<svg viewBox="0 0 60 25" fill="none" xmlns="http://www.w3.org/2000/svg">
  <path d="M59.3 14.6c0-8.1-3.9-14.6-11.6-14.6S36.1 6.5 36.1 14.5c0 9.7 4.3 14.5 12.5 14.5 3.6 0 6.3-.8 8.4-2v-6.6c-2.1 1.1-4.5 1.8-7.6 1.8-3 0-5.7-1-6-4.4h15.8c0-.4.1-1.3.1-3.2zm-16-2.9c0-3.3 2-4.6 4.4-4.6s4.2 1.3 4.2 4.6h-8.6zM30.7 1.4c-2.9 0-4.8 1.4-5.8 2.3l-.4-1.8H18v27.7l7.4-1.6V18c1.1.7 2.6 1.8 5.2 1.8 5.3 0 10.1-4.2 10.1-14.3.1-8.9-4.9-14.1-10-14.1zm-1.8 21.4c-1.7 0-2.7-.6-3.4-1.4V9.2c.7-.8 1.8-1.4 3.4-1.4 2.6 0 4.4 2.9 4.4 7 0 4.2-1.8 7-4.4 7zM11.5 3.5L4 5.1v21.1h7.5V8.9c1.4-.7 3.2-1 5.1-.6V1.4c-1.9-.2-3.9.3-5.1 2.1zM1.3 7.2h7.5v19h-7.5z" fill="#635BFF"/>
  <circle cx="4.9" cy="2.5" r="2.5" fill="#635BFF"/>
</svg>